<svg width="12" height="12" viewBox="0 0 12 12" fill="none" xmlns="http://www.w3.org/2000/svg">
<path d="M4.23448 9.10949C4.19961 9.14432 4.17195 9.18568 4.15308 9.2312C4.13421 9.27673 4.1245 9.32553 4.1245 9.37481C4.1245 9.42409 4.13421 9.47289 4.15308 9.51841C4.17195 9.56393 4.19961 9.60529 4.23448 9.64012L5.73448 11.1401C5.76931 11.175 5.81066 11.2026 5.85619 11.2215C5.90171 11.2404 5.95051 11.2501 5.99979 11.2501C6.04907 11.2501 6.09787 11.2404 6.14339 11.2215C6.18892 11.2026 6.23028 11.175 6.2651 11.1401L7.7651 9.64012C7.83547 9.56975 7.875 9.47432 7.875 9.37481C7.875 9.2753 7.83547 9.17986 7.7651 9.10949C7.69474 9.03913 7.5993 8.9996 7.49979 8.9996C7.40028 8.9996 7.30484 9.03913 7.23448 9.10949L6.37479 9.96965V2.02996L7.23448 2.89012C7.30484 2.96048 7.40028 3.00002 7.49979 3.00002C7.5993 3.00002 7.69474 2.96048 7.7651 2.89012C7.83547 2.81975 7.875 2.72432 7.875 2.62481C7.875 2.5253 7.83547 2.42986 7.7651 2.35949L6.2651 0.859494C6.23028 0.824628 6.18892 0.796968 6.14339 0.778097C6.09787 0.759225 6.04907 0.749512 5.99979 0.749512C5.95051 0.749512 5.90171 0.759225 5.85619 0.778097C5.81066 0.796968 5.76931 0.824628 5.73448 0.859494L4.23448 2.35949C4.16411 2.42986 4.12458 2.5253 4.12458 2.62481C4.12458 2.72432 4.16411 2.81975 4.23448 2.89012C4.30484 2.96048 4.40028 3.00002 4.49979 3.00002C4.5993 3.00002 4.69474 2.96048 4.7651 2.89012L5.62479 2.02996V9.96965L4.7651 9.10949C4.73028 9.07463 4.68892 9.04697 4.64339 9.0281C4.59787 9.00922 4.54907 8.99951 4.49979 8.99951C4.45051 8.99951 4.40171 9.00922 4.35619 9.0281C4.31066 9.04697 4.26931 9.07463 4.23448 9.10949Z" fill="#E5F3EB" fill-opacity="0.6"/>
</svg>
