<svg width="12" height="12" viewBox="0 0 12 12" fill="none" xmlns="http://www.w3.org/2000/svg">
<path d="M7.125 5.625H6.375V2.625H6.75C7.14782 2.625 7.52936 2.78304 7.81066 3.06434C8.09196 3.34564 8.25 3.72718 8.25 4.125C8.25 4.22446 8.28951 4.31984 8.35983 4.39016C8.43016 4.46049 8.52554 4.5 8.625 4.5C8.72446 4.5 8.81984 4.46049 8.89017 4.39016C8.96049 4.31984 9 4.22446 9 4.125C8.99938 3.52845 8.76213 2.95652 8.34031 2.5347C7.91848 2.11287 7.34655 1.87562 6.75 1.875H6.375V1.125C6.375 1.02554 6.33549 0.930161 6.26517 0.859835C6.19484 0.789509 6.09946 0.75 6 0.75C5.90054 0.75 5.80516 0.789509 5.73484 0.859835C5.66451 0.930161 5.625 1.02554 5.625 1.125V1.875H5.25C4.65326 1.875 4.08097 2.11205 3.65901 2.53401C3.23705 2.95597 3 3.52826 3 4.125C3 4.72174 3.23705 5.29403 3.65901 5.71599C4.08097 6.13795 4.65326 6.375 5.25 6.375H5.625V9.375H4.875C4.47718 9.375 4.09564 9.21696 3.81434 8.93566C3.53304 8.65436 3.375 8.27282 3.375 7.875C3.375 7.77554 3.33549 7.68016 3.26516 7.60983C3.19484 7.53951 3.09946 7.5 3 7.5C2.90054 7.5 2.80516 7.53951 2.73484 7.60983C2.66451 7.68016 2.625 7.77554 2.625 7.875C2.62562 8.47155 2.86287 9.04348 3.2847 9.46531C3.70652 9.88713 4.27845 10.1244 4.875 10.125H5.625V10.875C5.625 10.9745 5.66451 11.0698 5.73484 11.1402C5.80516 11.2105 5.90054 11.25 6 11.25C6.09946 11.25 6.19484 11.2105 6.26517 11.1402C6.33549 11.0698 6.375 10.9745 6.375 10.875V10.125H7.125C7.72174 10.125 8.29403 9.88795 8.71599 9.46599C9.13795 9.04403 9.375 8.47174 9.375 7.875C9.375 7.27826 9.13795 6.70597 8.71599 6.28401C8.29403 5.86205 7.72174 5.625 7.125 5.625ZM5.25 5.625C4.85218 5.625 4.47064 5.46696 4.18934 5.18566C3.90804 4.90436 3.75 4.52282 3.75 4.125C3.75 3.72718 3.90804 3.34564 4.18934 3.06434C4.47064 2.78304 4.85218 2.625 5.25 2.625H5.625V5.625H5.25ZM7.125 9.375H6.375V6.375H7.125C7.52282 6.375 7.90436 6.53304 8.18566 6.81434C8.46696 7.09564 8.625 7.47718 8.625 7.875C8.625 8.27282 8.46696 8.65436 8.18566 8.93566C7.90436 9.21696 7.52282 9.375 7.125 9.375Z" fill="#E5F3EB" fill-opacity="0.6"/>
</svg>
