<svg width="16" height="16" viewBox="0 0 16 16" fill="none" xmlns="http://www.w3.org/2000/svg">
<path d="M3.64674 12.3538C3.60025 12.3073 3.56337 12.2522 3.53821 12.1915C3.51305 12.1308 3.5001 12.0657 3.5001 12C3.5001 11.9343 3.51305 11.8692 3.53821 11.8085C3.56337 11.7478 3.60025 11.6927 3.64674 11.6462L10.7936 4.5H5.50049C5.36788 4.5 5.2407 4.44732 5.14693 4.35355C5.05317 4.25979 5.00049 4.13261 5.00049 4C5.00049 3.86739 5.05317 3.74021 5.14693 3.64645C5.2407 3.55268 5.36788 3.5 5.50049 3.5L12.0005 3.5C12.1331 3.5 12.2603 3.55268 12.354 3.64645C12.4478 3.74021 12.5005 3.86739 12.5005 4V10.5C12.5005 10.6326 12.4478 10.7598 12.354 10.8536C12.2603 10.9473 12.1331 11 12.0005 11C11.8679 11 11.7407 10.9473 11.6469 10.8536C11.5532 10.7598 11.5005 10.6326 11.5005 10.5V5.20687L4.35424 12.3538C4.3078 12.4002 4.25266 12.4371 4.19196 12.4623C4.13126 12.4874 4.0662 12.5004 4.00049 12.5004C3.93478 12.5004 3.86972 12.4874 3.80902 12.4623C3.74832 12.4371 3.69317 12.4002 3.64674 12.3538Z" fill="black"/>
</svg>
