<svg width="20" height="20" viewBox="0 0 20 20" fill="none" xmlns="http://www.w3.org/2000/svg">
<path d="M8.33073 13.3333V12.5H2.50573L2.4974 15.8333C2.4974 16.7583 3.23906 17.5 4.16406 17.5H15.8307C16.7557 17.5 17.4974 16.7583 17.4974 15.8333V12.5H11.6641V13.3333H8.33073ZM16.6641 5.83333H13.3224V4.16667L11.6557 2.5H8.3224L6.65573 4.16667V5.83333H3.33073C2.41406 5.83333 1.66406 6.58333 1.66406 7.5V10C1.66406 10.925 2.40573 11.6667 3.33073 11.6667H8.33073V10H11.6641V11.6667H16.6641C17.5807 11.6667 18.3307 10.9167 18.3307 10V7.5C18.3307 6.58333 17.5807 5.83333 16.6641 5.83333ZM11.6641 5.83333H8.33073V4.16667H11.6641V5.83333Z" fill="#E5F3EB" fill-opacity="0.6"/>
</svg>
