<svg width="40" height="40" viewBox="0 0 40 40" fill="none" xmlns="http://www.w3.org/2000/svg">
<path fill-rule="evenodd" clip-rule="evenodd" d="M29.1875 16.4932C29.7644 16.3536 30.3496 16.212 30.9347 16.0849C31.2478 15.9955 31.5608 15.9508 31.9186 15.9061C32.2764 17.0682 32.5 18.3644 32.5 19.6606C32.5 26.4544 27.0438 31.952 19.9776 31.952C12.9562 31.952 7.5 26.4544 7.5 19.6606C7.5 12.8668 13.0009 7.36914 19.9776 7.36914C25.5233 7.36914 30.085 10.7661 31.7844 15.4145C31.6279 15.4591 31.4714 15.4927 31.3148 15.5262C31.1583 15.5597 31.0018 15.5932 30.8453 15.6379L27.7594 16.4425C26.5966 13.1349 23.6002 10.8107 19.9776 10.8107C15.3265 10.8107 11.6592 14.744 11.6592 19.6159C11.6592 24.4878 15.3265 28.421 19.9776 28.421C24.6735 28.421 28.3408 24.4878 28.3408 19.6159C28.3408 18.6326 28.1619 17.694 27.8936 16.8C28.3178 16.7037 28.7503 16.599 29.1875 16.4932ZM16.2658 19.5265C16.5788 19.5265 19.9777 22.9681 19.9777 23.2363C19.9777 22.9681 23.3767 19.5712 23.6897 19.5265C23.3767 19.5265 19.9777 16.0849 19.9777 15.8167C19.9777 16.1296 16.5341 19.5265 16.2658 19.5265Z" fill="#68DDD2"/>
</svg>
