<svg width="21" height="20" viewBox="0 0 21 20" fill="none" xmlns="http://www.w3.org/2000/svg">
<path d="M10.2858 6.66659C11.2025 6.66659 11.9525 5.91659 11.9525 4.99992C11.9525 4.08325 11.2025 3.33325 10.2858 3.33325C9.36914 3.33325 8.61914 4.08325 8.61914 4.99992C8.61914 5.91659 9.36914 6.66659 10.2858 6.66659ZM10.2858 8.33325C9.36914 8.33325 8.61914 9.08325 8.61914 9.99992C8.61914 10.9166 9.36914 11.6666 10.2858 11.6666C11.2025 11.6666 11.9525 10.9166 11.9525 9.99992C11.9525 9.08325 11.2025 8.33325 10.2858 8.33325ZM10.2858 13.3333C9.36914 13.3333 8.61914 14.0833 8.61914 14.9999C8.61914 15.9166 9.36914 16.6666 10.2858 16.6666C11.2025 16.6666 11.9525 15.9166 11.9525 14.9999C11.9525 14.0833 11.2025 13.3333 10.2858 13.3333Z" fill="#E5F3EB" fill-opacity="0.6"/>
</svg>
